<?xml version="1.0" standalone="no"?>
<!DOCTYPE svg PUBLIC "-//W3C//DTD SVG 20010904//EN"
 "http://www.w3.org/TR/2001/REC-SVG-20010904/DTD/svg10.dtd">
<svg version="1.0" xmlns="http://www.w3.org/2000/svg"
 width="98.000000pt" height="98.000000pt" viewBox="0 0 98.000000 98.000000"
 preserveAspectRatio="xMidYMid meet">
<metadata>
Created by potrace 1.11, written by Peter Selinger 2001-2013
</metadata>
<g transform="translate(0.000000,98.000000) scale(0.100000,-0.100000)"
fill="#000000" stroke="none">
<path d="M273 858 l-203 -113 3 -250 2 -249 105 -63 c58 -35 116 -69 130 -77
14 -7 60 -33 103 -58 l78 -45 201 123 c110 68 203 126 206 129 3 3 6 111 7
239 l1 234 -205 119 c-112 65 -209 119 -215 121 -6 1 -102 -48 -213 -110z"/>
</g>
</svg>
